<?xml version="1.0" encoding="UTF-8"?>
<svg id="Layer_1" xmlns="http://www.w3.org/2000/svg" version="1.1" viewBox="0 0 167.6 25.7">
  <!-- Generator: Adobe Illustrator 30.1.0, SVG Export Plug-In . SVG Version: 2.1.1 Build 136)  -->
  <defs>
    <style>
      .st0 {
        fill: #e6eaef;
      }

      .st1 {
        fill: #228a96;
      }
    </style>
  </defs>
  <g>
    <path class="st0" d="M25.7,25.7c-2.3,0-4.1-.5-5.6-1.5-1.5-1-2.4-2.5-2.7-4.6l3.5-.8c.2,1,.5,1.8,1,2.3.5.6,1,1,1.7,1.2.7.2,1.4.4,2.2.4,1.2,0,2.1-.2,2.7-.7.6-.5,1-1,1-1.8s-.3-1.2-.9-1.6c-.6-.3-1.5-.6-2.7-.8l-1.2-.2c-1.2-.2-2.3-.5-3.3-.9-1-.4-1.8-1-2.3-1.7-.6-.7-.9-1.6-.9-2.8,0-1.7.6-3,1.9-3.9,1.2-.9,2.9-1.4,5-1.4s3.6.5,4.9,1.4c1.3.9,2.1,2.1,2.5,3.7l-3.5,1c-.2-1.1-.7-1.8-1.4-2.3-.7-.4-1.6-.7-2.6-.7s-1.8.2-2.4.6-.9.9-.9,1.6.3,1.2.8,1.6c.6.3,1.3.6,2.3.8l1.3.2c1.3.2,2.4.5,3.5.9,1.1.4,1.9.9,2.5,1.7.6.7.9,1.7.9,2.9,0,1.8-.7,3.2-2,4.1-1.3,1-3.1,1.5-5.3,1.5Z"/>
    <path class="st0" d="M43.9,25.2c-1.1,0-1.9-.3-2.6-1s-1-1.5-1-2.6v-11.1h-4.9v-3.1h4.9V1.6h3.7v5.9h5.3v3.1h-5.3v10.4c0,.7.3,1.1,1,1.1h3.7v3.1h-4.9Z"/>
    <path class="st0" d="M58.8,25.7c-1.3,0-2.4-.2-3.4-.6-1-.4-1.8-1.1-2.4-1.9-.6-.8-.9-1.9-.9-3.1s.3-2.2.9-3c.6-.8,1.4-1.4,2.4-1.8,1-.4,2.2-.6,3.5-.6h5.4v-1.2c0-1-.3-1.9-.9-2.5-.6-.6-1.6-.9-2.9-.9s-2.2.3-2.9.9c-.7.6-1.1,1.4-1.3,2.3l-3.5-1.1c.3-1,.8-1.8,1.4-2.6.6-.8,1.5-1.4,2.5-1.9,1.1-.5,2.3-.7,3.8-.7,2.3,0,4.1.6,5.4,1.8,1.3,1.2,2,2.8,2,5v7.3c0,.7.3,1.1,1,1.1h1.5v3.1h-2.8c-.8,0-1.5-.2-2.1-.6-.5-.4-.8-1-.8-1.8h0c0-.1-.5-.1-.5-.1-.2.4-.5.8-.9,1.3-.4.5-.9.9-1.7,1.2-.7.3-1.7.5-3,.5ZM59.4,22.6c1.5,0,2.7-.4,3.6-1.3.9-.9,1.4-2,1.4-3.5v-.4h-5.2c-1,0-1.8.2-2.4.6-.6.4-.9,1-.9,1.9s.3,1.5.9,1.9c.6.5,1.5.7,2.6.7Z"/>
    <path class="st0" d="M73.9,25.2V7.5h3.6v2.1h.6c.3-.7.7-1.3,1.4-1.6.6-.3,1.4-.5,2.4-.5h2.1v3.3h-2.3c-1.2,0-2.2.3-3,1-.8.7-1.2,1.7-1.2,3v10.4h-3.7Z"/>
    <path class="st0" d="M90,25.2l-3-17.7h3.7l2.2,15.3h.6l3.1-15.3h6l3.1,15.3h.6l2.2-15.3h3.7l-3,17.7h-6.2l-3.1-15.2h-.6l-3.1,15.2h-6.2Z"/>
    <path class="st0" d="M121.5,25.7c-1.3,0-2.4-.2-3.4-.6-1-.4-1.8-1.1-2.4-1.9-.6-.8-.9-1.9-.9-3.1s.3-2.2.9-3c.6-.8,1.4-1.4,2.4-1.8,1-.4,2.2-.6,3.5-.6h5.4v-1.2c0-1-.3-1.9-.9-2.5-.6-.6-1.6-.9-2.9-.9s-2.2.3-2.9.9c-.7.6-1.1,1.4-1.3,2.3l-3.5-1.1c.3-1,.8-1.8,1.4-2.6.6-.8,1.5-1.4,2.5-1.9,1.1-.5,2.3-.7,3.8-.7,2.3,0,4.1.6,5.4,1.8,1.3,1.2,2,2.8,2,5v7.3c0,.7.3,1.1,1,1.1h1.5v3.1h-2.8c-.8,0-1.5-.2-2.1-.6-.5-.4-.8-1-.8-1.8h0c0-.1-.5-.1-.5-.1-.2.4-.5.8-.9,1.3-.4.5-.9.9-1.7,1.2-.7.3-1.7.5-3,.5ZM122,22.6c1.5,0,2.7-.4,3.6-1.3.9-.9,1.4-2,1.4-3.5v-.4h-5.2c-1,0-1.8.2-2.4.6-.6.4-.9,1-.9,1.9s.3,1.5.9,1.9c.6.5,1.5.7,2.6.7Z"/>
    <path class="st0" d="M136.5,25.2V7.5h3.6v2.1h.6c.3-.7.7-1.3,1.4-1.6.6-.3,1.4-.5,2.4-.5h2.1v3.3h-2.3c-1.2,0-2.2.3-3,1-.8.7-1.2,1.7-1.2,3v10.4h-3.7Z"/>
    <path class="st0" d="M157.3,25.7c-1.5,0-2.8-.4-4.1-1.1-1.2-.7-2.2-1.8-3-3.1-.8-1.4-1.1-3-1.1-4.9v-.5c0-1.9.4-3.5,1.1-4.9.7-1.4,1.7-2.4,3-3.1,1.2-.7,2.6-1.1,4.1-1.1s2.1.1,2.9.4c.8.3,1.4.7,1.9,1.1.5.4.9.9,1.2,1.4h.6V0h3.7v25.2h-3.6v-2.5h-.6c-.5.8-1.1,1.5-2.1,2.1-.9.6-2.2.9-4,.9ZM158.3,22.5c1.6,0,2.9-.5,4-1.5,1-1,1.6-2.5,1.6-4.4v-.3c0-1.9-.5-3.4-1.5-4.4-1-1-2.4-1.5-4-1.5s-2.9.5-3.9,1.5c-1,1-1.6,2.5-1.6,4.4v.3c0,1.9.5,3.4,1.6,4.4,1,1,2.4,1.5,3.9,1.5Z"/>
  </g>
  <path class="st1" d="M0,8.6v-1.9h3.1l2.5.3.2-.4-2-1.5L1.5,2.9l1.4-1.3,2.2,2.2,1.5,2,.4-.2-.3-2.5V0h1.9v3.1l-.3,2.5.4.2,1.5-2,2.2-2.2,1.4,1.3-2.2,2.2-2,1.5.2.4,2.5-.3h3.1v1.9h-3.1l-2.5-.3-.2.4,2,1.5,2.2,2.2-1.4,1.4-2.2-2.2-1.5-2-.4.2.3,2.5v3.1h-1.9v-3.1l.3-2.5-.4-.2-1.5,2-2.2,2.2-1.4-1.4,2.2-2.2,2-1.5-.2-.4-2.5.3H0Z"/>
</svg>